<mxfile host="app.diagrams.net" modified="2023-01-10T13:58:29.900Z" agent="5.0 (Windows NT 10.0; Win64; x64) AppleWebKit/537.36 (KHTML, like Gecko) Chrome/108.0.0.0 Safari/537.36" etag="OR0RC2aebu7v1Is8EvzT" version="20.8.1" type="github">
  <diagram id="kgpKYQtTHZ0yAKxKKP6v" name="Page-1">
    <mxGraphModel dx="2805" dy="612" grid="1" gridSize="10" guides="1" tooltips="1" connect="1" arrows="1" fold="1" page="1" pageScale="1" pageWidth="850" pageHeight="1100" math="0" shadow="0">
      <root>
        <mxCell id="0" />
        <mxCell id="1" parent="0" />
        <mxCell id="3nuBFxr9cyL0pnOWT2aG-1" value="HomeView" style="shape=umlLifeline;perimeter=lifelinePerimeter;container=1;collapsible=0;recursiveResize=0;rounded=0;shadow=0;strokeWidth=1;" parent="1" vertex="1">
          <mxGeometry x="-760" y="59" width="100" height="1661" as="geometry" />
        </mxCell>
        <mxCell id="3nuBFxr9cyL0pnOWT2aG-2" value="" style="points=[];perimeter=orthogonalPerimeter;rounded=0;shadow=0;strokeWidth=1;" parent="3nuBFxr9cyL0pnOWT2aG-1" vertex="1">
          <mxGeometry x="45" y="84" width="10" height="46" as="geometry" />
        </mxCell>
        <mxCell id="VgFMn7d585Ha0XAmIZsE-6" value="1: Membuka&#xa;halaman Home" style="verticalAlign=bottom;endArrow=block;shadow=0;strokeWidth=1;fontStyle=0;labelBorderColor=none;labelBackgroundColor=none;" edge="1" parent="3nuBFxr9cyL0pnOWT2aG-1">
          <mxGeometry relative="1" as="geometry">
            <mxPoint x="-90" y="84.00000000000011" as="sourcePoint" />
            <mxPoint x="45" y="84" as="targetPoint" />
          </mxGeometry>
        </mxCell>
        <mxCell id="VgFMn7d585Ha0XAmIZsE-14" value="" style="points=[];perimeter=orthogonalPerimeter;rounded=0;shadow=0;strokeWidth=1;" vertex="1" parent="3nuBFxr9cyL0pnOWT2aG-1">
          <mxGeometry x="45" y="221" width="10" height="59" as="geometry" />
        </mxCell>
        <mxCell id="3nuBFxr9cyL0pnOWT2aG-5" value="HomeUtilities" style="shape=umlLifeline;perimeter=lifelinePerimeter;container=1;collapsible=0;recursiveResize=0;rounded=0;shadow=0;strokeWidth=1;" parent="1" vertex="1">
          <mxGeometry x="-535" y="59" width="100" height="1661" as="geometry" />
        </mxCell>
        <mxCell id="3nuBFxr9cyL0pnOWT2aG-6" value="" style="points=[];perimeter=orthogonalPerimeter;rounded=0;shadow=0;strokeWidth=1;" parent="3nuBFxr9cyL0pnOWT2aG-5" vertex="1">
          <mxGeometry x="45" y="110" width="10" height="40" as="geometry" />
        </mxCell>
        <mxCell id="VgFMn7d585Ha0XAmIZsE-7" value="2: fetchListAcadAvailableOfflineMode()" style="verticalAlign=bottom;endArrow=block;shadow=0;strokeWidth=1;fontStyle=0;labelBorderColor=none;labelBackgroundColor=none;entryX=-0.024;entryY=0.003;entryDx=0;entryDy=0;entryPerimeter=0;" edge="1" parent="3nuBFxr9cyL0pnOWT2aG-5" target="3nuBFxr9cyL0pnOWT2aG-6">
          <mxGeometry relative="1" as="geometry">
            <mxPoint x="-169.63333333333344" y="110" as="sourcePoint" />
            <mxPoint x="45" y="111" as="targetPoint" />
          </mxGeometry>
        </mxCell>
        <mxCell id="VgFMn7d585Ha0XAmIZsE-12" value="" style="points=[];perimeter=orthogonalPerimeter;rounded=0;shadow=0;strokeWidth=1;" vertex="1" parent="3nuBFxr9cyL0pnOWT2aG-5">
          <mxGeometry x="45" y="201" width="10" height="39" as="geometry" />
        </mxCell>
        <mxCell id="VgFMn7d585Ha0XAmIZsE-16" value="" style="points=[];perimeter=orthogonalPerimeter;rounded=0;shadow=0;strokeWidth=1;" vertex="1" parent="3nuBFxr9cyL0pnOWT2aG-5">
          <mxGeometry x="45" y="271" width="10" height="429" as="geometry" />
        </mxCell>
        <mxCell id="VgFMn7d585Ha0XAmIZsE-17" value="" style="endArrow=classic;html=1;rounded=0;labelBackgroundColor=none;labelBorderColor=none;edgeStyle=elbowEdgeStyle;" edge="1" parent="3nuBFxr9cyL0pnOWT2aG-5">
          <mxGeometry x="-1" y="41" width="50" height="50" relative="1" as="geometry">
            <mxPoint x="55" y="290.5" as="sourcePoint" />
            <mxPoint x="55" y="310.5" as="targetPoint" />
            <Array as="points">
              <mxPoint x="75" y="300.5" />
            </Array>
            <mxPoint x="-40" y="31" as="offset" />
          </mxGeometry>
        </mxCell>
        <mxCell id="3nuBFxr9cyL0pnOWT2aG-7" value="5: return list acad available offline mode" style="verticalAlign=bottom;endArrow=open;dashed=1;endSize=8;exitX=0;exitY=0.95;shadow=0;strokeWidth=1;entryX=1.103;entryY=0.554;entryDx=0;entryDy=0;entryPerimeter=0;" parent="1" edge="1">
          <mxGeometry relative="1" as="geometry">
            <mxPoint x="-253.97000000000025" y="238.76599999999996" as="targetPoint" />
            <mxPoint x="-40" y="240.5" as="sourcePoint" />
          </mxGeometry>
        </mxCell>
        <mxCell id="D12k0bA-BJYKIJGbDswn-10" value="" style="group" parent="1" vertex="1" connectable="0">
          <mxGeometry x="-860" y="59" width="20" height="710" as="geometry" />
        </mxCell>
        <mxCell id="D12k0bA-BJYKIJGbDswn-4" value="User" style="shape=umlActor;verticalLabelPosition=bottom;verticalAlign=top;html=1;outlineConnect=0;" parent="D12k0bA-BJYKIJGbDswn-10" vertex="1">
          <mxGeometry y="-20" width="20" height="40" as="geometry" />
        </mxCell>
        <mxCell id="VgFMn7d585Ha0XAmIZsE-1" value="HttpService" style="shape=umlLifeline;perimeter=lifelinePerimeter;container=1;collapsible=0;recursiveResize=0;rounded=0;shadow=0;strokeWidth=1;" vertex="1" parent="1">
          <mxGeometry x="-310" y="59" width="100" height="1661" as="geometry" />
        </mxCell>
        <mxCell id="VgFMn7d585Ha0XAmIZsE-2" value="" style="points=[];perimeter=orthogonalPerimeter;rounded=0;shadow=0;strokeWidth=1;" vertex="1" parent="VgFMn7d585Ha0XAmIZsE-1">
          <mxGeometry x="45" y="131" width="10" height="79" as="geometry" />
        </mxCell>
        <mxCell id="VgFMn7d585Ha0XAmIZsE-3" value="BINUSMAYA 7 API" style="shape=umlLifeline;perimeter=lifelinePerimeter;container=1;collapsible=0;recursiveResize=0;rounded=0;shadow=0;strokeWidth=1;" vertex="1" parent="1">
          <mxGeometry x="-95" y="59" width="120" height="1661" as="geometry" />
        </mxCell>
        <mxCell id="VgFMn7d585Ha0XAmIZsE-4" value="" style="points=[];perimeter=orthogonalPerimeter;rounded=0;shadow=0;strokeWidth=1;" vertex="1" parent="VgFMn7d585Ha0XAmIZsE-3">
          <mxGeometry x="55" y="150" width="10" height="40" as="geometry" />
        </mxCell>
        <mxCell id="VgFMn7d585Ha0XAmIZsE-8" value="3: workerSagaFetchList-&#xa;AcadOfflineModeAvailable()" style="verticalAlign=bottom;endArrow=block;shadow=0;strokeWidth=1;fontStyle=0;labelBorderColor=none;labelBackgroundColor=none;entryX=-0.024;entryY=0.003;entryDx=0;entryDy=0;entryPerimeter=0;" edge="1" parent="1">
          <mxGeometry relative="1" as="geometry">
            <mxPoint x="-480.0033333333332" y="190" as="sourcePoint" />
            <mxPoint x="-265.61000000000024" y="190.21000000000004" as="targetPoint" />
          </mxGeometry>
        </mxCell>
        <mxCell id="VgFMn7d585Ha0XAmIZsE-9" value="4:Â getOfflineModeFeatureAvailability()" style="verticalAlign=bottom;endArrow=block;shadow=0;strokeWidth=1;fontStyle=0;labelBorderColor=none;labelBackgroundColor=none;entryX=-0.024;entryY=0.003;entryDx=0;entryDy=0;entryPerimeter=0;" edge="1" parent="1">
          <mxGeometry relative="1" as="geometry">
            <mxPoint x="-255.0033333333331" y="208.85" as="sourcePoint" />
            <mxPoint x="-40.61000000000013" y="209.06000000000003" as="targetPoint" />
          </mxGeometry>
        </mxCell>
        <mxCell id="VgFMn7d585Ha0XAmIZsE-11" value="6: save &amp; return list acad &#xa;available offline mode &#xa;into local storage" style="verticalAlign=bottom;endArrow=open;dashed=1;endSize=8;exitX=0;exitY=0.95;shadow=0;strokeWidth=1;entryX=1.046;entryY=0.283;entryDx=0;entryDy=0;entryPerimeter=0;" edge="1" parent="1">
          <mxGeometry relative="1" as="geometry">
            <mxPoint x="-480" y="260" as="targetPoint" />
            <mxPoint x="-265.46000000000004" y="260.22" as="sourcePoint" />
          </mxGeometry>
        </mxCell>
        <mxCell id="VgFMn7d585Ha0XAmIZsE-13" value="7: return list acad &#xa;available offline mode &#xa;into local storage" style="verticalAlign=bottom;endArrow=open;dashed=1;endSize=8;exitX=0;exitY=0.95;shadow=0;strokeWidth=1;entryX=1.046;entryY=0.283;entryDx=0;entryDy=0;entryPerimeter=0;" edge="1" parent="1">
          <mxGeometry relative="1" as="geometry">
            <mxPoint x="-704" y="280" as="targetPoint" />
            <mxPoint x="-489.46000000000004" y="280.22" as="sourcePoint" />
          </mxGeometry>
        </mxCell>
        <mxCell id="VgFMn7d585Ha0XAmIZsE-15" value="8: isOfflineModeFeatureAvailable()" style="verticalAlign=bottom;endArrow=block;shadow=0;strokeWidth=1;fontStyle=0;labelBorderColor=none;labelBackgroundColor=none;entryX=-0.024;entryY=0.003;entryDx=0;entryDy=0;entryPerimeter=0;" edge="1" parent="1">
          <mxGeometry relative="1" as="geometry">
            <mxPoint x="-704.0033333333332" y="329" as="sourcePoint" />
            <mxPoint x="-489.61" y="329.12" as="targetPoint" />
          </mxGeometry>
        </mxCell>
        <mxCell id="VgFMn7d585Ha0XAmIZsE-19" value="&lt;font style=&quot;font-size: 11px;&quot;&gt;9: checkCurrentAcad-&lt;br&gt;OfflineModePermit()&lt;/font&gt;" style="text;html=1;strokeColor=none;fillColor=none;align=center;verticalAlign=middle;whiteSpace=wrap;rounded=0;" vertex="1" parent="1">
          <mxGeometry x="-450" y="350" width="110" height="20" as="geometry" />
        </mxCell>
        <mxCell id="VgFMn7d585Ha0XAmIZsE-21" value="" style="points=[];perimeter=orthogonalPerimeter;rounded=0;shadow=0;strokeWidth=1;" vertex="1" parent="1">
          <mxGeometry x="-855" y="100" width="10" height="1620" as="geometry" />
        </mxCell>
        <mxCell id="VgFMn7d585Ha0XAmIZsE-23" value="&lt;b&gt;alt&lt;/b&gt;" style="shape=umlFrame;whiteSpace=wrap;html=1;fontSize=11;width=30;height=20;fillColor=none;" vertex="1" parent="1">
          <mxGeometry x="-890" y="390" width="900" height="710" as="geometry" />
        </mxCell>
        <mxCell id="VgFMn7d585Ha0XAmIZsE-24" value="&lt;span style=&quot;font-size: 10px;&quot;&gt;[Acad is not permitted to access Offline Mode]&lt;/span&gt;" style="text;html=1;strokeColor=none;fillColor=none;align=center;verticalAlign=middle;whiteSpace=wrap;rounded=0;" vertex="1" parent="1">
          <mxGeometry x="-845" y="390" width="110" height="35.5" as="geometry" />
        </mxCell>
        <mxCell id="VgFMn7d585Ha0XAmIZsE-25" value="" style="points=[];perimeter=orthogonalPerimeter;rounded=0;shadow=0;strokeWidth=1;" vertex="1" parent="1">
          <mxGeometry x="-715" y="409" width="10" height="41" as="geometry" />
        </mxCell>
        <mxCell id="VgFMn7d585Ha0XAmIZsE-26" value="10: return false" style="verticalAlign=bottom;endArrow=open;dashed=1;endSize=8;exitX=0;exitY=0.95;shadow=0;strokeWidth=1;entryX=1.046;entryY=0.283;entryDx=0;entryDy=0;entryPerimeter=0;" edge="1" parent="1">
          <mxGeometry relative="1" as="geometry">
            <mxPoint x="-705" y="409" as="targetPoint" />
            <mxPoint x="-490.46000000000004" y="409.22" as="sourcePoint" />
          </mxGeometry>
        </mxCell>
        <mxCell id="VgFMn7d585Ha0XAmIZsE-27" value="11: silentSynchRoleData()" style="verticalAlign=bottom;endArrow=block;shadow=0;strokeWidth=1;fontStyle=0;labelBorderColor=none;labelBackgroundColor=none;entryX=-0.024;entryY=0.003;entryDx=0;entryDy=0;entryPerimeter=0;" edge="1" parent="1">
          <mxGeometry relative="1" as="geometry">
            <mxPoint x="-705.0033333333331" y="441" as="sourcePoint" />
            <mxPoint x="-490.6100000000001" y="441.12" as="targetPoint" />
          </mxGeometry>
        </mxCell>
        <mxCell id="VgFMn7d585Ha0XAmIZsE-29" value="12: getUserProfile()" style="verticalAlign=bottom;endArrow=block;shadow=0;strokeWidth=1;fontStyle=0;labelBorderColor=none;labelBackgroundColor=none;entryX=-0.024;entryY=0.003;entryDx=0;entryDy=0;entryPerimeter=0;" edge="1" parent="1">
          <mxGeometry relative="1" as="geometry">
            <mxPoint x="-480.00333333333333" y="460.0000000000001" as="sourcePoint" />
            <mxPoint x="-265.6100000000001" y="460.1200000000001" as="targetPoint" />
          </mxGeometry>
        </mxCell>
        <mxCell id="VgFMn7d585Ha0XAmIZsE-30" value="14: return user profile data" style="verticalAlign=bottom;endArrow=open;dashed=1;endSize=8;exitX=0;exitY=0.95;shadow=0;strokeWidth=1;entryX=1.103;entryY=0.554;entryDx=0;entryDy=0;entryPerimeter=0;" edge="1" parent="1">
          <mxGeometry relative="1" as="geometry">
            <mxPoint x="-253.97000000000025" y="508.26599999999996" as="targetPoint" />
            <mxPoint x="-40" y="510" as="sourcePoint" />
          </mxGeometry>
        </mxCell>
        <mxCell id="VgFMn7d585Ha0XAmIZsE-31" value="" style="points=[];perimeter=orthogonalPerimeter;rounded=0;shadow=0;strokeWidth=1;" vertex="1" parent="1">
          <mxGeometry x="-265" y="459.5" width="10" height="79" as="geometry" />
        </mxCell>
        <mxCell id="VgFMn7d585Ha0XAmIZsE-32" value="" style="points=[];perimeter=orthogonalPerimeter;rounded=0;shadow=0;strokeWidth=1;" vertex="1" parent="1">
          <mxGeometry x="-40" y="478.5" width="10" height="40" as="geometry" />
        </mxCell>
        <mxCell id="VgFMn7d585Ha0XAmIZsE-33" value="13: getUserProfile()" style="verticalAlign=bottom;endArrow=block;shadow=0;strokeWidth=1;fontStyle=0;labelBorderColor=none;labelBackgroundColor=none;entryX=-0.024;entryY=0.003;entryDx=0;entryDy=0;entryPerimeter=0;" edge="1" parent="1">
          <mxGeometry relative="1" as="geometry">
            <mxPoint x="-255.0033333333331" y="478.35" as="sourcePoint" />
            <mxPoint x="-40.61000000000013" y="478.56000000000006" as="targetPoint" />
          </mxGeometry>
        </mxCell>
        <mxCell id="VgFMn7d585Ha0XAmIZsE-35" value="15: save &amp; return user profile data" style="verticalAlign=bottom;endArrow=open;dashed=1;endSize=8;exitX=0;exitY=0.95;shadow=0;strokeWidth=1;entryX=1.086;entryY=0.038;entryDx=0;entryDy=0;entryPerimeter=0;" edge="1" parent="1" target="VgFMn7d585Ha0XAmIZsE-36">
          <mxGeometry relative="1" as="geometry">
            <mxPoint x="-480.0000000000002" y="529.9960000000001" as="targetPoint" />
            <mxPoint x="-266.03" y="531.73" as="sourcePoint" />
          </mxGeometry>
        </mxCell>
        <mxCell id="VgFMn7d585Ha0XAmIZsE-39" value="16: getUserPrivileges()" style="verticalAlign=bottom;endArrow=block;shadow=0;strokeWidth=1;fontStyle=0;labelBorderColor=none;labelBackgroundColor=none;entryX=-0.024;entryY=0.003;entryDx=0;entryDy=0;entryPerimeter=0;" edge="1" parent="1">
          <mxGeometry relative="1" as="geometry">
            <mxPoint x="-480.00333333333333" y="570.0000000000001" as="sourcePoint" />
            <mxPoint x="-265.6100000000001" y="570.1200000000001" as="targetPoint" />
          </mxGeometry>
        </mxCell>
        <mxCell id="VgFMn7d585Ha0XAmIZsE-40" value="18: return list user privileges" style="verticalAlign=bottom;endArrow=open;dashed=1;endSize=8;exitX=0;exitY=0.95;shadow=0;strokeWidth=1;entryX=1.103;entryY=0.554;entryDx=0;entryDy=0;entryPerimeter=0;" edge="1" parent="1">
          <mxGeometry relative="1" as="geometry">
            <mxPoint x="-253.97000000000025" y="618.766" as="targetPoint" />
            <mxPoint x="-40" y="620.4999999999999" as="sourcePoint" />
          </mxGeometry>
        </mxCell>
        <mxCell id="VgFMn7d585Ha0XAmIZsE-41" value="" style="points=[];perimeter=orthogonalPerimeter;rounded=0;shadow=0;strokeWidth=1;" vertex="1" parent="1">
          <mxGeometry x="-265" y="570" width="10" height="79" as="geometry" />
        </mxCell>
        <mxCell id="VgFMn7d585Ha0XAmIZsE-42" value="" style="points=[];perimeter=orthogonalPerimeter;rounded=0;shadow=0;strokeWidth=1;" vertex="1" parent="1">
          <mxGeometry x="-40" y="589" width="10" height="40" as="geometry" />
        </mxCell>
        <mxCell id="VgFMn7d585Ha0XAmIZsE-43" value="17: getUserPrivileges()" style="verticalAlign=bottom;endArrow=block;shadow=0;strokeWidth=1;fontStyle=0;labelBorderColor=none;labelBackgroundColor=none;entryX=-0.024;entryY=0.003;entryDx=0;entryDy=0;entryPerimeter=0;" edge="1" parent="1">
          <mxGeometry relative="1" as="geometry">
            <mxPoint x="-255.0033333333331" y="588.85" as="sourcePoint" />
            <mxPoint x="-40.61000000000013" y="589.0600000000001" as="targetPoint" />
          </mxGeometry>
        </mxCell>
        <mxCell id="VgFMn7d585Ha0XAmIZsE-44" value="19: save &amp; return list user privileges" style="verticalAlign=bottom;endArrow=open;dashed=1;endSize=8;exitX=-0.03;exitY=0.888;shadow=0;strokeWidth=1;exitDx=0;exitDy=0;exitPerimeter=0;entryX=1.097;entryY=0.002;entryDx=0;entryDy=0;entryPerimeter=0;" edge="1" parent="1" source="VgFMn7d585Ha0XAmIZsE-41" target="VgFMn7d585Ha0XAmIZsE-45">
          <mxGeometry relative="1" as="geometry">
            <mxPoint x="-480" y="640" as="targetPoint" />
            <mxPoint x="-265" y="641.7299999999999" as="sourcePoint" />
          </mxGeometry>
        </mxCell>
        <mxCell id="VgFMn7d585Ha0XAmIZsE-45" value="" style="points=[];perimeter=orthogonalPerimeter;rounded=0;shadow=0;strokeWidth=1;" vertex="1" parent="1">
          <mxGeometry x="-487" y="640" width="10" height="30" as="geometry" />
        </mxCell>
        <mxCell id="VgFMn7d585Ha0XAmIZsE-46" value="20: finish silent sync role data" style="verticalAlign=bottom;endArrow=open;dashed=1;endSize=8;exitX=-0.03;exitY=0.888;shadow=0;strokeWidth=1;entryX=1.103;entryY=0.554;entryDx=0;entryDy=0;entryPerimeter=0;exitDx=0;exitDy=0;exitPerimeter=0;" edge="1" parent="1">
          <mxGeometry relative="1" as="geometry">
            <mxPoint x="-705.0000000000002" y="659.9960000000001" as="targetPoint" />
            <mxPoint x="-491.33000000000015" y="660.152" as="sourcePoint" />
          </mxGeometry>
        </mxCell>
        <mxCell id="VgFMn7d585Ha0XAmIZsE-47" value="" style="points=[];perimeter=orthogonalPerimeter;rounded=0;shadow=0;strokeWidth=1;" vertex="1" parent="1">
          <mxGeometry x="-715" y="660" width="10" height="41" as="geometry" />
        </mxCell>
        <mxCell id="VgFMn7d585Ha0XAmIZsE-48" value="21: finish silent &#xa;sync role data" style="verticalAlign=bottom;endArrow=open;dashed=1;endSize=8;exitX=-0.205;exitY=0.734;shadow=0;strokeWidth=1;entryX=1.103;entryY=0.554;entryDx=0;entryDy=0;entryPerimeter=0;exitDx=0;exitDy=0;exitPerimeter=0;" edge="1" parent="1" source="VgFMn7d585Ha0XAmIZsE-47">
          <mxGeometry relative="1" as="geometry">
            <mxPoint x="-845.0000000000002" y="689.9960000000001" as="targetPoint" />
            <mxPoint x="-631.3299999999999" y="690.152" as="sourcePoint" />
          </mxGeometry>
        </mxCell>
        <mxCell id="VgFMn7d585Ha0XAmIZsE-49" value="" style="line;strokeWidth=1;fillColor=none;align=left;verticalAlign=middle;spacingTop=-1;spacingLeft=3;spacingRight=3;rotatable=0;labelPosition=right;points=[];portConstraint=eastwest;strokeColor=inherit;fontSize=10;dashed=1;" vertex="1" parent="1">
          <mxGeometry x="-890" y="706" width="900" height="8" as="geometry" />
        </mxCell>
        <mxCell id="VgFMn7d585Ha0XAmIZsE-50" value="&lt;span style=&quot;font-size: 10px;&quot;&gt;[Acad is permitted to access Offline Mode]&lt;/span&gt;" style="text;html=1;strokeColor=none;fillColor=none;align=center;verticalAlign=middle;whiteSpace=wrap;rounded=0;" vertex="1" parent="1">
          <mxGeometry x="-845" y="710" width="110" height="35.5" as="geometry" />
        </mxCell>
        <mxCell id="VgFMn7d585Ha0XAmIZsE-51" value="" style="points=[];perimeter=orthogonalPerimeter;rounded=0;shadow=0;strokeWidth=1;" vertex="1" parent="1">
          <mxGeometry x="-715" y="734" width="10" height="41" as="geometry" />
        </mxCell>
        <mxCell id="VgFMn7d585Ha0XAmIZsE-52" value="22: return true" style="verticalAlign=bottom;endArrow=open;dashed=1;endSize=8;exitX=0;exitY=0.95;shadow=0;strokeWidth=1;entryX=1.046;entryY=0.283;entryDx=0;entryDy=0;entryPerimeter=0;" edge="1" parent="1">
          <mxGeometry relative="1" as="geometry">
            <mxPoint x="-705.0000000000002" y="734" as="targetPoint" />
            <mxPoint x="-490.46000000000004" y="734.2199999999999" as="sourcePoint" />
          </mxGeometry>
        </mxCell>
        <mxCell id="VgFMn7d585Ha0XAmIZsE-28" value="" style="points=[];perimeter=orthogonalPerimeter;rounded=0;shadow=0;strokeWidth=1;" vertex="1" parent="1">
          <mxGeometry x="-486" y="440" width="10" height="30.5" as="geometry" />
        </mxCell>
        <mxCell id="VgFMn7d585Ha0XAmIZsE-36" value="" style="points=[];perimeter=orthogonalPerimeter;rounded=0;shadow=0;strokeWidth=1;" vertex="1" parent="1">
          <mxGeometry x="-486" y="528" width="10" height="50" as="geometry" />
        </mxCell>
      </root>
    </mxGraphModel>
  </diagram>
</mxfile>
